<svg id="light" xmlns="http://www.w3.org/2000/svg" fill="none" viewBox="0 0 120 120"><g fill="#000" clip-path="url(#a)"><path d="M70.21 74.976a21.678 21.678 0 0 0 11.624-7.675c3.633-4.65 5.215-10.434 4.454-16.287a21.72 21.72 0 0 0-8.475-14.61c-4.557-3.457-10.216-4.967-15.935-4.25-5.719.718-10.83 3.578-14.393 8.054-3.054 3.837-4.7 8.449-4.761 13.338-.098 7.937-2.774 15.663-7.533 21.756l-5.208 6.665a6.813 6.813 0 0 0 1.172 9.552l4.988 3.897a6.813 6.813 0 0 0 9.552-1.173l5.208-6.665c4.812-6.16 11.474-10.529 19.307-12.602ZM45.528 53.581c.053-4.26 1.488-8.281 4.151-11.626 6.397-8.037 18.257-9.524 26.439-3.317 4.102 3.117 6.726 7.636 7.389 12.738a18.932 18.932 0 0 1-3.883 14.199 18.896 18.896 0 0 1-10.132 6.69c-8.253 2.185-15.328 6.729-20.494 13.156l-11.276-8.81c4.934-6.507 7.703-14.663 7.806-23.03Zm-12.75 29.364.699-.894 10.282 10.116-.274.35a3.994 3.994 0 0 1-.47.5L32.777 82.945Zm2.437-3.119.783-1.003 11.293 8.823-1.795 2.297-10.282-10.117Zm-2.333 9.483a4.002 4.002 0 0 1-1.485-3.788l8.662 8.522a3.978 3.978 0 0 1-2.189-.837l-4.988-3.897Z"/><path d="M52.371 46.96c.366-.647.789-1.273 1.258-1.861a1.402 1.402 0 1 0-2.194-1.747 17.172 17.172 0 0 0-1.504 2.225 1.403 1.403 0 1 0 2.44 1.382ZM45.76 68.824a1.402 1.402 0 0 0 2.183-.63 44.49 44.49 0 0 0 2.633-14.55c.01-.823.091-1.644.242-2.44a1.402 1.402 0 0 0-2.757-.52c-.18.957-.277 1.94-.29 2.925a41.69 41.69 0 0 1-2.466 13.635 1.403 1.403 0 0 0 .456 1.58ZM73.251 66.689a1.402 1.402 0 0 0-1.903-.557c-.985.54-2.044.961-3.147 1.253a1.402 1.402 0 0 0 .718 2.711 16.85 16.85 0 0 0 3.776-1.504c.679-.371.928-1.224.556-1.903ZM73.23 42.785c6.092 4.76 7.176 13.59 2.416 19.682-.27.346-.56.683-.858 1a1.402 1.402 0 0 0 2.043 1.922 17.3 17.3 0 0 0 1.025-1.196c5.712-7.31 4.411-17.906-2.9-23.618a1.402 1.402 0 1 0-1.727 2.21ZM79.553 34.69c.61.478 1.491.37 1.968-.24l4.835-6.189a1.402 1.402 0 0 0-2.21-1.726l-4.835 6.188a1.402 1.402 0 0 0 .242 1.968ZM66.668 28.14a1.402 1.402 0 1 0 2.777.39l1.093-7.772a1.402 1.402 0 0 0-2.777-.39l-1.093 7.772ZM78.406 84.834l-2.941-7.278a1.402 1.402 0 1 0-2.6 1.05l2.94 7.279a1.402 1.402 0 1 0 2.6-1.05ZM50.486 23.22l2.94 7.278a1.402 1.402 0 1 0 2.6-1.05l-2.94-7.279a1.402 1.402 0 1 0-2.6 1.05ZM91.938 73.727l-6.188-4.835a1.402 1.402 0 1 0-1.727 2.21l6.188 4.835a1.403 1.403 0 0 0 1.727-2.21ZM45.11 38.92a1.402 1.402 0 0 0-.242-1.968l-6.188-4.835a1.402 1.402 0 1 0-1.726 2.21l6.188 4.834c.61.477 1.491.37 1.968-.241ZM89.275 58.743c.187.147.414.248.667.283l7.773 1.093a1.402 1.402 0 0 0 .39-2.777l-7.773-1.093a1.402 1.402 0 0 0-1.057 2.494ZM38.95 49.028l-7.773-1.093a1.402 1.402 0 1 0-.39 2.777l7.772 1.093a1.402 1.402 0 0 0 .39-2.777ZM87.2 44.834a1.402 1.402 0 0 0 1.826.775l7.278-2.942a1.402 1.402 0 1 0-1.05-2.6l-7.279 2.941a1.402 1.402 0 0 0-.774 1.825Z"/></g><defs><clipPath id="a"><path fill="#fff" d="m52.53.055 67.167 52.476-52.476 67.166L.055 67.22z"/></clipPath></defs></svg>