<svg id="kak" viewBox="0 0 866 588" fill="none" xmlns="http://www.w3.org/2000/svg">
<g clip-path="url(#clip0_1_4)">
<rect x="177.889" y="2.23504" width="824.247" height="168" rx="84" transform="rotate(31.0506 177.889 2.23504)" stroke="#FF0000" stroke-width="12"/>
<path d="M664.075 412.262C662.603 416.945 660.485 420.726 657.722 423.606C654.958 426.486 651.811 428.387 648.281 429.31C644.751 430.233 641.092 430.1 637.305 428.909C633.518 427.719 630.441 425.735 628.074 422.958C625.707 420.181 624.214 416.821 623.595 412.878C622.977 408.936 623.403 404.623 624.875 399.94C626.347 395.256 628.465 391.475 631.229 388.595C633.992 385.716 637.139 383.814 640.669 382.891C644.199 381.968 647.858 382.102 651.645 383.292C655.432 384.482 658.509 386.466 660.876 389.243C663.243 392.02 664.736 395.38 665.355 399.323C665.974 403.266 665.547 407.579 664.075 412.262ZM658.872 410.626C660.08 406.781 660.457 403.334 660.002 400.285C659.562 397.24 658.464 394.695 656.708 392.65C654.967 390.61 652.752 389.167 650.064 388.322C647.375 387.477 644.726 387.391 642.117 388.063C639.521 388.74 637.165 390.199 635.047 392.44C632.943 394.685 631.287 397.73 630.079 401.575C628.87 405.42 628.486 408.865 628.927 411.91C629.382 414.959 630.48 417.504 632.221 419.545C633.976 421.589 636.198 423.034 638.887 423.879C641.575 424.724 644.217 424.808 646.812 424.131C649.422 423.459 651.778 422 653.882 419.754C656 417.514 657.663 414.471 658.872 410.626ZM662.495 436.161L663.994 431.391L665.208 431.772C666.206 432.086 667.098 432.152 667.886 431.971C668.678 431.775 669.433 431.242 670.151 430.372C670.888 429.492 671.647 428.19 672.427 426.466C673.227 424.732 674.115 422.486 675.093 419.728L680.335 405.175L702.537 412.154L692.068 445.457L686.951 443.848L695.92 415.316L683.692 411.472L679.437 423.19C678.463 425.885 677.46 428.215 676.43 430.178C675.419 432.131 674.317 433.691 673.125 434.857C671.947 436.027 670.633 436.773 669.181 437.095C667.73 437.417 666.079 437.287 664.229 436.706L662.495 436.161ZM715.201 453.491C711.992 452.482 709.447 450.904 707.565 448.756C705.702 446.598 704.544 444.042 704.09 441.088C703.656 438.125 703.975 434.937 705.047 431.526C706.12 428.115 707.686 425.304 709.747 423.093C711.827 420.872 714.217 419.384 716.916 418.628C719.634 417.863 722.497 417.952 725.503 418.897C727.238 419.443 728.86 420.27 730.369 421.38C731.879 422.49 733.123 423.913 734.101 425.65C735.084 427.373 735.654 429.426 735.81 431.81C735.966 434.193 735.556 436.939 734.579 440.047L733.897 442.215L708.226 434.145L709.617 429.722L730.084 436.156C730.675 434.277 730.826 432.482 730.538 430.772C730.264 429.066 729.575 427.57 728.47 426.286C727.379 425.006 725.909 424.075 724.058 423.494C722.02 422.853 720.098 422.805 718.291 423.349C716.503 423.882 714.96 424.827 713.66 426.181C712.361 427.536 711.423 429.131 710.846 430.966L709.919 433.915C709.128 436.43 708.892 438.698 709.209 440.72C709.546 442.732 710.351 444.438 711.626 445.84C712.905 447.226 714.579 448.245 716.646 448.894C717.99 449.317 719.263 449.511 720.465 449.476C721.686 449.431 722.815 449.15 723.851 448.634C724.891 448.103 725.81 447.328 726.607 446.308L731.114 449.25C730.067 450.763 728.729 451.962 727.1 452.848C725.476 453.719 723.65 454.225 721.62 454.365C719.595 454.491 717.456 454.2 715.201 453.491ZM768.014 432.737L766.515 437.507L751.078 432.654L742.108 461.187L736.992 459.578L747.46 426.276L768.014 432.737ZM772.84 471.705C770.73 471.042 768.94 470.042 767.47 468.706C766.004 467.356 765.004 465.763 764.469 463.928C763.939 462.077 764.015 460.068 764.696 457.9C765.296 455.992 766.158 454.564 767.282 453.615C768.411 452.651 769.711 452.028 771.182 451.743C772.653 451.459 774.2 451.39 775.822 451.534C777.463 451.669 779.089 451.878 780.699 452.162C782.804 452.538 784.506 452.859 785.804 453.124C787.122 453.379 788.122 453.431 788.805 453.281C789.502 453.135 789.98 452.65 790.239 451.826L790.293 451.652C790.966 449.513 790.903 447.667 790.105 446.113C789.321 444.565 787.751 443.42 785.395 442.679C782.952 441.912 780.869 441.844 779.145 442.478C777.421 443.111 776.087 443.946 775.141 444.983L770.83 441.722C772.333 439.971 773.985 438.759 775.785 438.086C777.603 437.403 779.443 437.108 781.304 437.201C783.184 437.283 784.962 437.588 786.639 438.115C787.709 438.451 788.896 438.968 790.202 439.664C791.527 440.351 792.717 441.289 793.773 442.478C794.843 443.672 795.564 445.193 795.936 447.041C796.308 448.889 796.078 451.136 795.247 453.781L788.349 475.723L783.232 474.114L784.65 469.604L784.39 469.523C783.816 470.136 782.995 470.728 781.926 471.297C780.858 471.867 779.561 472.229 778.035 472.385C776.509 472.54 774.777 472.314 772.84 471.705ZM775.066 467.354C777.089 467.99 778.92 468.129 780.557 467.77C782.209 467.416 783.587 466.721 784.691 465.686C785.809 464.656 786.586 463.447 787.022 462.059L788.494 457.376C788.195 457.568 787.643 457.657 786.838 457.642C786.052 457.617 785.157 457.534 784.153 457.393C783.168 457.242 782.209 457.084 781.277 456.918C780.363 456.742 779.62 456.604 779.048 456.503C777.664 456.259 776.332 456.15 775.053 456.177C773.793 456.194 772.689 456.474 771.74 457.017C770.81 457.551 770.14 458.468 769.731 459.769C769.172 461.547 769.407 463.098 770.436 464.422C771.485 465.736 773.028 466.713 775.066 467.354Z" fill="#FF0000"/>
<circle cx="488" cy="287" r="141.5" stroke="#FF0000" stroke-width="17"/>
<path d="M593.811 313.671L605.282 319.978L604.314 321.74L599.324 318.998L598.684 320.163L601.407 327.028L600.159 329.298L597.177 321.63L588.654 323.052L589.902 320.781L596.811 319.678L597.681 318.094L592.842 315.434L593.811 313.671ZM585.06 329.024C585.629 327.989 586.375 327.215 587.298 326.705C588.217 326.199 589.241 325.971 590.368 326.02C591.493 326.074 592.647 326.426 593.832 327.078C595.027 327.735 595.951 328.525 596.604 329.448C597.255 330.376 597.613 331.364 597.679 332.412C597.742 333.464 597.489 334.508 596.92 335.544C596.35 336.58 595.606 337.35 594.686 337.856C593.763 338.367 592.737 338.594 591.608 338.537C590.476 338.485 589.312 338.131 588.117 337.474C586.932 336.823 586.017 336.034 585.372 335.109C584.723 334.189 584.368 333.202 584.305 332.149C584.239 331.102 584.49 330.06 585.06 329.024ZM586.643 329.895C586.21 330.681 586.056 331.44 586.18 332.169C586.305 332.899 586.628 333.566 587.151 334.171C587.674 334.777 588.319 335.29 589.086 335.712C589.853 336.133 590.634 336.404 591.431 336.524C592.227 336.644 592.969 336.562 593.657 336.279C594.344 335.995 594.904 335.46 595.336 334.674C595.769 333.887 595.921 333.127 595.791 332.395C595.662 331.663 595.334 330.993 594.806 330.385C594.278 329.777 593.63 329.262 592.863 328.84C592.097 328.419 591.317 328.149 590.526 328.032C589.735 327.915 588.998 327.999 588.315 328.285C587.633 328.572 587.075 329.108 586.643 329.895ZM578.161 341.573C578.752 340.498 579.515 339.711 580.45 339.214C581.385 338.716 582.413 338.503 583.534 338.575C584.655 338.647 585.789 338.997 586.934 339.627C588.099 340.267 589.009 341.047 589.665 341.965C590.323 342.891 590.692 343.878 590.77 344.926C590.851 345.982 590.607 347.028 590.038 348.063C589.594 348.87 589.045 349.515 588.391 349.998C587.736 350.481 587.026 350.781 586.261 350.899C585.496 351.017 584.728 350.928 583.956 350.634L584.925 348.871C585.522 349.024 586.149 348.98 586.807 348.738C587.467 348.505 588.011 348 588.438 347.223C588.816 346.536 588.968 345.835 588.894 345.12C588.822 344.413 588.542 343.737 588.054 343.092C587.567 342.455 586.891 341.899 586.025 341.422C585.138 340.935 584.29 340.65 583.479 340.568C582.666 340.49 581.937 340.608 581.291 340.921C580.643 341.239 580.128 341.747 579.744 342.444C579.493 342.902 579.344 343.361 579.298 343.822C579.252 344.284 579.307 344.726 579.463 345.149C579.62 345.572 579.877 345.953 580.235 346.293L579.266 348.055C578.644 347.583 578.169 347.002 577.843 346.31C577.519 345.626 577.374 344.875 577.408 344.058C577.445 343.248 577.696 342.42 578.161 341.573ZM584.829 353.292L586.472 354.195L581.348 363.516L579.705 362.613L581.775 358.849L571.946 353.446L572.915 351.683L582.744 357.086L584.829 353.292Z" fill="#FF0000"/>
<path d="M195.265 162.439L187.142 109.678L177.036 104.287L156.925 141.985L146.979 136.679L190.796 54.545L200.742 59.851L181.743 95.4637L186.074 97.7744L237.959 79.7057L249.83 86.0387L197.368 104.417L207.135 168.772L195.265 162.439ZM236.062 186.058C232.159 183.976 229.009 181.351 226.612 178.183C224.229 174.988 222.85 171.488 222.476 167.683C222.117 163.85 223.007 159.929 225.146 155.918C227.029 152.389 229.25 149.899 231.81 148.448C234.384 146.971 237.17 146.224 240.166 146.209C243.163 146.193 246.229 146.627 249.364 147.509C252.54 148.38 255.659 149.391 258.719 150.542C262.719 152.058 265.946 153.316 268.401 154.316C270.896 155.304 272.842 155.776 274.24 155.731C275.664 155.701 276.783 154.924 277.596 153.4L277.767 153.079C279.878 149.123 280.435 145.47 279.439 142.122C278.47 138.789 275.806 135.96 271.448 133.635C266.93 131.224 262.86 130.324 259.238 130.933C255.615 131.542 252.684 132.691 250.443 134.381L243.171 126.38C246.772 123.493 250.466 121.72 254.252 121.061C258.079 120.389 261.805 120.488 265.429 121.356C269.093 122.212 272.476 123.467 275.578 125.122C277.556 126.178 279.701 127.631 282.01 129.481C284.361 131.319 286.355 133.602 287.991 136.329C289.654 139.071 290.51 142.327 290.559 146.097C290.609 149.867 289.328 154.199 286.718 159.091L265.066 199.677L255.602 194.628L260.052 186.286L259.571 186.029C258.216 187.024 256.383 187.884 254.073 188.609C251.763 189.334 249.079 189.568 246.022 189.311C242.965 189.054 239.645 187.97 236.062 186.058ZM242.042 178.327C245.785 180.323 249.332 181.271 252.683 181.17C256.061 181.083 259.026 180.226 261.577 178.599C264.154 176.986 266.128 174.896 267.497 172.33L272.119 163.667C271.461 163.934 270.343 163.905 268.766 163.578C267.229 163.24 265.5 162.746 263.579 162.099C261.698 161.439 259.872 160.774 258.1 160.104C256.37 159.421 254.961 158.875 253.873 158.467C251.242 157.476 248.665 156.77 246.141 156.351C243.658 155.919 241.383 156.063 239.317 156.781C237.292 157.486 235.638 159.042 234.354 161.449C232.6 164.737 232.49 167.873 234.024 170.855C235.6 173.825 238.272 176.315 242.042 178.327ZM282.341 208.893L315.204 147.293L324.669 152.342L310.377 179.132L316.633 182.469L353.063 167.49L365.254 173.994L324.557 190.406L332.712 235.765L320.521 229.261L314.172 192.49L305.67 187.954L291.806 213.942L282.341 208.893Z" fill="#FF0000"/>
<path d="M411.484 303.925L421.432 296.594L425.477 302.083C427.036 304.198 428.757 305.665 430.639 306.483C432.542 307.33 434.499 307.741 436.509 307.715C438.541 307.718 440.503 307.508 442.396 307.083L446.666 306.054L491.53 226.144L499.999 237.637L463.277 302.017L534.128 283.948L542.47 295.269L446.513 319.135C442.884 319.957 439.328 320.46 435.847 320.644C432.386 320.856 428.972 320.174 425.604 318.597C422.258 317.049 418.941 314.045 415.655 309.585L411.484 303.925Z" fill="#FF0000"/>
<circle cx="487.5" cy="287.5" r="103.5" stroke="#FF0000" stroke-width="8"/>
<path d="M490.982 160.792L493.744 160.778C495.039 160.771 496.191 161.055 497.2 161.629C498.209 162.203 499.003 163.006 499.582 164.037C500.161 165.068 500.454 166.266 500.461 167.629C500.469 168.993 500.188 170.196 499.62 171.239C499.051 172.282 498.266 173.098 497.263 173.689C496.26 174.279 495.111 174.578 493.816 174.585L491.055 174.599C489.759 174.606 488.607 174.322 487.598 173.748C486.59 173.173 485.796 172.371 485.216 171.34C484.637 170.309 484.344 169.111 484.337 167.748C484.33 166.384 484.61 165.181 485.179 164.138C485.747 163.095 486.533 162.279 487.535 161.688C488.538 161.098 489.687 160.799 490.982 160.792ZM490.992 162.667C490.004 162.672 489.17 162.884 488.49 163.303C487.816 163.721 487.305 164.309 486.956 165.066C486.614 165.824 486.445 166.714 486.451 167.737C486.456 168.748 486.634 169.628 486.984 170.376C487.34 171.124 487.858 171.704 488.536 172.115C489.22 172.526 490.056 172.729 491.045 172.724L493.806 172.71C494.795 172.704 495.626 172.493 496.3 172.074C496.98 171.656 497.491 171.068 497.833 170.311C498.182 169.553 498.353 168.663 498.348 167.64C498.343 166.629 498.162 165.749 497.806 165.001C497.455 164.253 496.938 163.673 496.254 163.262C495.576 162.851 494.742 162.648 493.754 162.653L490.992 162.667ZM493.425 158.393L493.521 176.87L491.407 176.881L491.311 158.404L493.425 158.393ZM505.095 181.003C504.754 181.005 504.45 180.978 504.183 180.923C503.916 180.873 503.731 180.823 503.628 180.772L504.13 178.997C504.62 179.119 505.052 179.162 505.426 179.126C505.801 179.09 506.133 178.921 506.421 178.618C506.715 178.321 506.982 177.84 507.223 177.174L507.593 176.149L502.683 163.015L504.865 163.004L508.533 173.417L508.669 173.416L512.228 162.965L514.41 162.954L508.932 177.983C508.685 178.66 508.379 179.222 508.012 179.667C507.645 180.118 507.217 180.452 506.73 180.671C506.248 180.889 505.703 181 505.095 181.003Z" fill="#FF0000"/>
<path d="M538.888 171.161L541.333 172.444C542.48 173.046 543.364 173.837 543.985 174.818C544.606 175.799 544.931 176.88 544.958 178.062C544.986 179.245 544.683 180.44 544.049 181.647C543.415 182.854 542.603 183.785 541.611 184.439C540.62 185.093 539.543 185.445 538.381 185.496C537.218 185.547 536.064 185.271 534.916 184.669L532.471 183.386C531.324 182.784 530.44 181.993 529.819 181.012C529.198 180.032 528.874 178.95 528.846 177.768C528.819 176.586 529.122 175.391 529.755 174.183C530.389 172.976 531.202 172.045 532.193 171.391C533.184 170.737 534.261 170.385 535.424 170.334C536.586 170.283 537.741 170.559 538.888 171.161ZM538.017 172.821C537.141 172.362 536.305 172.157 535.509 172.207C534.717 172.26 533.99 172.54 533.327 173.045C532.669 173.553 532.102 174.26 531.627 175.165C531.157 176.061 530.901 176.921 530.859 177.747C530.823 178.574 531.007 179.329 531.413 180.01C531.824 180.695 532.467 181.266 533.343 181.726L535.788 183.009C536.663 183.469 537.497 183.672 538.288 183.619C539.085 183.568 539.812 183.289 540.47 182.781C541.133 182.276 541.702 181.57 542.178 180.665C542.648 179.769 542.901 178.907 542.938 178.08C542.979 177.255 542.795 176.5 542.384 175.816C541.978 175.134 541.337 174.564 540.462 174.104L538.017 172.821ZM542.17 170.189L533.583 186.549L531.712 185.567L540.299 169.206L542.17 170.189ZM541.864 195.631C541.562 195.473 541.306 195.306 541.096 195.132C540.883 194.962 540.743 194.831 540.677 194.738L541.953 193.406C542.328 193.744 542.689 193.985 543.037 194.129C543.385 194.273 543.757 194.279 544.154 194.147C544.553 194.023 545.015 193.723 545.54 193.248L546.347 192.517L548.176 178.616L550.108 179.63L548.46 190.546L548.581 190.609L556.628 183.052L558.56 184.066L546.669 194.765C546.133 195.247 545.599 195.599 545.066 195.82C544.531 196.046 543.996 196.141 543.463 196.105C542.935 196.071 542.402 195.913 541.864 195.631Z" fill="#FF0000"/>
<path d="M585.597 206.466L586.575 208.223L576.775 213.679L579.18 217.998L588.979 212.542L589.958 214.3L580.158 219.755L582.562 224.074L592.362 218.619L593.34 220.376L581.903 226.744L574.159 212.833L585.597 206.466ZM586.038 234.732C585.463 233.7 585.204 232.657 585.262 231.604C585.322 230.556 585.673 229.568 586.313 228.639C586.956 227.715 587.869 226.924 589.05 226.266C590.242 225.603 591.402 225.24 592.531 225.177C593.663 225.119 594.69 225.341 595.613 225.842C596.538 226.348 597.288 227.117 597.863 228.149C598.438 229.182 598.695 230.222 598.635 231.27C598.577 232.323 598.224 233.313 597.576 234.24C596.931 235.171 596.012 235.969 594.821 236.632C593.639 237.29 592.485 237.646 591.358 237.701C590.234 237.761 589.209 237.538 588.284 237.033C587.361 236.532 586.613 235.765 586.038 234.732ZM587.616 233.854C588.053 234.638 588.613 235.171 589.297 235.454C589.981 235.736 590.719 235.817 591.51 235.695C592.3 235.574 593.078 235.3 593.842 234.875C594.607 234.449 595.252 233.931 595.776 233.32C596.301 232.709 596.626 232.037 596.751 231.304C596.877 230.571 596.721 229.813 596.284 229.028C595.848 228.244 595.285 227.712 594.596 227.432C593.907 227.152 593.165 227.075 592.369 227.199C591.573 227.323 590.793 227.598 590.029 228.024C589.264 228.449 588.622 228.966 588.102 229.574C587.582 230.182 587.262 230.851 587.142 231.582C587.022 232.312 587.18 233.069 587.616 233.854Z" fill="#FF0000"/>
<path d="M603.65 282.945L603.455 285.083C602.862 285.075 602.391 285.3 602.041 285.759C601.69 286.223 601.479 286.849 601.407 287.635C601.334 288.439 601.435 289.141 601.711 289.743C601.993 290.345 602.504 290.679 603.246 290.747C603.681 290.787 604.07 290.714 604.412 290.528C604.76 290.343 605.042 290.064 605.259 289.69C605.476 289.316 605.608 288.863 605.657 288.331L605.862 286.091L607.661 286.255L607.456 288.496C607.384 289.293 607.511 289.898 607.838 290.311C608.165 290.728 608.6 290.962 609.144 291.012C609.726 291.065 610.212 290.901 610.601 290.52C610.995 290.14 611.227 289.57 611.296 288.812C611.366 288.048 611.251 287.396 610.952 286.855C610.659 286.315 610.245 286.006 609.711 285.929L609.903 283.824C610.602 283.91 611.202 284.182 611.703 284.639C612.209 285.096 612.582 285.689 612.824 286.418C613.071 287.148 613.153 287.966 613.07 288.871C612.987 289.788 612.753 290.568 612.369 291.212C611.99 291.862 611.509 292.346 610.927 292.664C610.35 292.988 609.716 293.118 609.026 293.055C608.29 292.988 607.715 292.727 607.3 292.273C606.885 291.818 606.61 291.271 606.474 290.631L606.338 290.619C606.259 291.108 606.062 291.521 605.746 291.857C605.435 292.199 605.044 292.452 604.573 292.614C604.107 292.777 603.603 292.834 603.06 292.784C602.267 292.712 601.596 292.436 601.047 291.958C600.503 291.481 600.103 290.857 599.848 290.086C599.599 289.316 599.518 288.455 599.605 287.505C599.689 286.583 599.914 285.77 600.281 285.068C600.653 284.366 601.128 283.824 601.704 283.443C602.286 283.068 602.935 282.902 603.65 282.945ZM598.514 299.074C598.59 298.248 598.814 297.513 599.186 296.868C599.565 296.223 600.069 295.73 600.699 295.388C601.335 295.047 602.078 294.915 602.926 294.993C603.673 295.061 604.265 295.263 604.702 295.6C605.145 295.937 605.477 296.364 605.698 296.88C605.919 297.397 606.067 297.958 606.143 298.564C606.224 299.176 606.277 299.789 606.301 300.402C606.33 301.203 606.348 301.852 606.354 302.349C606.365 302.852 606.425 303.223 606.535 303.461C606.644 303.705 606.86 303.842 607.182 303.871L607.25 303.877C608.087 303.954 608.759 303.784 609.265 303.368C609.77 302.958 610.065 302.291 610.149 301.369C610.236 300.413 610.096 299.644 609.726 299.063C609.357 298.481 608.945 298.058 608.49 297.794L609.343 295.955C610.104 296.367 610.679 296.876 611.069 297.482C611.464 298.094 611.718 298.745 611.832 299.435C611.951 300.13 611.981 300.806 611.921 301.462C611.882 301.881 611.788 302.357 611.636 302.891C611.49 303.431 611.241 303.942 610.889 304.423C610.536 304.91 610.036 305.296 609.388 305.579C608.74 305.862 607.899 305.956 606.863 305.862L598.274 305.077L598.457 303.074L600.222 303.236L600.232 303.134C599.961 302.972 599.679 302.718 599.386 302.372C599.092 302.025 598.856 301.579 598.678 301.032C598.499 300.485 598.445 299.832 598.514 299.074ZM600.286 299.544C600.213 300.336 600.308 301.018 600.569 301.59C600.831 302.167 601.195 302.617 601.662 302.939C602.128 303.267 602.633 303.456 603.176 303.505L605.009 303.673C604.915 303.578 604.839 303.383 604.78 303.087C604.727 302.797 604.686 302.462 604.658 302.083C604.635 301.71 604.617 301.346 604.604 300.991C604.596 300.642 604.587 300.359 604.579 300.142C604.558 299.615 604.492 299.118 604.381 298.651C604.275 298.191 604.084 297.809 603.81 297.504C603.54 297.205 603.151 297.033 602.642 296.986C601.946 296.923 601.396 297.132 600.992 297.615C600.594 298.103 600.358 298.746 600.286 299.544Z" fill="#FF0000"/>
<path d="M572.127 360.576L573.966 372.362L572.211 373.876L563.659 363.964L565.182 362.65L571.796 370.316L569.932 358.553L571.713 357.016L580.264 366.928L578.741 368.242L572.127 360.576ZM561.747 365.613L562.972 367.033L562.611 367.345C562.314 367.601 562.117 367.872 562.019 368.159C561.925 368.45 561.946 368.796 562.082 369.197C562.217 369.606 562.482 370.105 562.878 370.694C563.273 371.291 563.814 372.018 564.5 372.874L568.105 377.418L561.497 383.119L552.945 373.207L554.468 371.893L561.795 380.385L565.434 377.245L562.538 373.576C561.871 372.733 561.327 371.953 560.904 371.237C560.481 370.529 560.201 369.87 560.065 369.26C559.924 368.653 559.946 368.087 560.13 367.561C560.313 367.034 560.681 366.534 561.231 366.059L561.747 365.613ZM550.151 375.618L558.703 385.53L557.18 386.843L548.628 376.932L550.151 375.618ZM559.354 387.85C559.65 387.594 559.994 387.474 560.383 387.49C560.768 387.511 561.083 387.663 561.328 387.947C561.573 388.231 561.678 388.565 561.641 388.949C561.601 389.337 561.432 389.659 561.135 389.915C560.838 390.171 560.497 390.289 560.112 390.268C559.722 390.252 559.405 390.101 559.16 389.817C558.915 389.534 558.813 389.198 558.854 388.81C558.89 388.426 559.057 388.106 559.354 387.85Z" fill="#FF0000"/>
<path d="M484.627 403.79L481.229 416.432L471.286 413.76L474.685 401.118L476.627 401.64L473.715 412.471L479.773 414.1L482.685 403.268L484.627 403.79ZM465.908 398.476C467.126 398.803 468.104 399.354 468.843 400.13C469.575 400.909 470.049 401.848 470.266 402.948C470.475 404.051 470.405 405.251 470.057 406.545C469.709 407.84 469.166 408.918 468.429 409.779C467.685 410.644 466.813 411.239 465.813 411.565C464.807 411.894 463.733 411.906 462.592 411.599C461.933 411.422 461.313 411.137 460.73 410.745C460.147 410.353 459.658 409.839 459.264 409.204C458.869 408.574 458.623 407.814 458.527 406.923C458.431 406.032 458.542 404.997 458.859 403.817L459.08 402.994L468.825 405.614L468.374 407.293L460.604 405.204C460.412 405.918 460.384 406.593 460.519 407.229C460.648 407.864 460.93 408.413 461.364 408.877C461.793 409.339 462.358 409.665 463.061 409.854C463.835 410.062 464.556 410.05 465.224 409.818C465.885 409.589 466.449 409.211 466.914 408.684C467.38 408.156 467.706 407.543 467.894 406.846L468.195 405.727C468.451 404.772 468.504 403.919 468.354 403.166C468.196 402.418 467.867 401.791 467.367 401.286C466.866 400.787 466.223 400.431 465.439 400.22C464.929 400.083 464.448 400.031 463.999 400.063C463.542 400.099 463.123 400.222 462.743 400.431C462.362 400.647 462.03 400.951 461.747 401.346L460.012 400.315C460.381 399.732 460.863 399.261 461.46 398.904C462.054 398.552 462.731 398.333 463.489 398.249C464.246 398.17 465.052 398.245 465.908 398.476ZM458.922 391.797L454.249 409.179L452.373 408.675L452.912 406.667L452.682 406.605C452.48 406.786 452.208 407.013 451.864 407.285C451.513 407.561 451.063 407.77 450.513 407.91C449.956 408.055 449.267 408.017 448.444 407.795C447.379 407.509 446.512 406.991 445.843 406.24C445.174 405.49 444.743 404.565 444.551 403.466C444.358 402.367 444.44 401.153 444.797 399.825C445.157 398.486 445.696 397.387 446.416 396.527C447.134 395.673 447.968 395.086 448.919 394.765C449.869 394.449 450.871 394.433 451.924 394.716C452.736 394.935 453.35 395.244 453.766 395.644C454.181 396.05 454.474 396.461 454.644 396.877C454.813 397.299 454.938 397.645 455.019 397.913L455.183 397.958L456.98 391.274L458.922 391.797ZM454.039 402.345C454.296 401.39 454.382 400.511 454.298 399.706C454.213 398.906 453.957 398.228 453.53 397.672C453.102 397.122 452.498 396.742 451.719 396.532C450.906 396.314 450.171 396.346 449.513 396.628C448.848 396.913 448.28 397.384 447.809 398.04C447.332 398.701 446.972 399.48 446.73 400.38C446.491 401.269 446.413 402.107 446.496 402.894C446.571 403.685 446.827 404.363 447.264 404.928C447.694 405.496 448.32 405.891 449.143 406.112C449.933 406.325 450.651 406.303 451.296 406.047C451.94 405.796 452.495 405.351 452.961 404.712C453.426 404.078 453.785 403.289 454.039 402.345ZM438.295 391.052C439.513 391.38 440.491 391.931 441.23 392.706C441.962 393.486 442.436 394.425 442.652 395.524C442.862 396.628 442.792 397.827 442.444 399.122C442.096 400.417 441.553 401.495 440.816 402.356C440.071 403.221 439.199 403.816 438.2 404.141C437.194 404.471 436.12 404.482 434.978 404.175C434.32 403.998 433.699 403.714 433.116 403.322C432.533 402.93 432.045 402.416 431.651 401.781C431.255 401.151 431.01 400.39 430.914 399.5C430.818 398.609 430.928 397.574 431.246 396.394L431.467 395.571L441.212 398.191L440.76 399.87L432.991 397.781C432.799 398.494 432.771 399.169 432.905 399.806C433.035 400.44 433.317 400.99 433.751 401.454C434.18 401.916 434.745 402.242 435.447 402.431C436.221 402.639 436.942 402.626 437.611 402.394C438.272 402.166 438.836 401.788 439.301 401.26C439.767 400.732 440.093 400.12 440.28 399.423L440.581 398.304C440.838 397.349 440.891 396.495 440.74 395.743C440.582 394.994 440.254 394.368 439.754 393.863C439.253 393.363 438.61 393.008 437.825 392.797C437.315 392.66 436.835 392.607 436.385 392.639C435.928 392.675 435.51 392.798 435.13 393.008C434.749 393.223 434.417 393.528 434.134 393.923L432.399 392.892C432.768 392.308 433.25 391.838 433.846 391.48C434.441 391.128 435.117 390.91 435.876 390.826C436.632 390.747 437.439 390.822 438.295 391.052Z" fill="#FF0000"/>
<path d="M431.728 387.524L422.618 396.925L415.225 389.76L424.335 380.359L425.779 381.759L417.974 389.813L422.479 394.179L430.284 386.124L431.728 387.524ZM418.189 378.533L406.613 381.415L404.949 379.802L414.059 370.401L415.503 371.801L408.457 379.072L420.008 376.166L421.697 377.803L412.587 387.204L411.143 385.804L418.189 378.533ZM407.784 363.94C408.665 364.795 409.223 365.738 409.456 366.771C409.689 367.804 409.623 368.852 409.258 369.914C408.893 370.977 408.256 371.977 407.346 372.916C406.421 373.871 405.429 374.543 404.37 374.934C403.304 375.324 402.255 375.419 401.223 375.218C400.183 375.017 399.239 374.506 398.39 373.683C397.729 373.043 397.252 372.343 396.959 371.584C396.665 370.825 396.563 370.062 396.651 369.293C396.74 368.524 397.028 367.806 397.516 367.14L398.96 368.539C398.655 369.074 398.532 369.691 398.591 370.389C398.642 371.088 398.986 371.745 399.623 372.362C400.186 372.908 400.822 373.239 401.531 373.357C402.232 373.474 402.958 373.383 403.709 373.081C404.451 372.781 405.166 372.275 405.854 371.565C406.558 370.839 407.057 370.096 407.35 369.336C407.64 368.572 407.719 367.837 407.587 367.132C407.451 366.423 407.098 365.792 406.527 365.238C406.151 364.874 405.747 364.609 405.315 364.443C404.882 364.277 404.441 364.214 403.992 364.253C403.542 364.292 403.107 364.44 402.685 364.696L401.24 363.296C401.86 362.82 402.546 362.516 403.299 362.384C404.045 362.251 404.807 362.31 405.586 362.559C406.358 362.808 407.09 363.268 407.784 363.94ZM404.272 354.081C404.517 354.318 404.715 354.55 404.867 354.777C405.024 354.999 405.121 355.164 405.159 355.272L403.558 356.19C403.294 355.76 403.015 355.427 402.722 355.19C402.429 354.954 402.074 354.843 401.656 354.857C401.238 354.864 400.711 355.021 400.072 355.328L399.091 355.802L393.41 368.62L391.843 367.102L396.508 357.096L396.41 357.001L386.555 361.978L384.989 360.459L399.418 353.554C400.068 353.243 400.68 353.056 401.253 352.995C401.831 352.93 402.37 352.99 402.871 353.175C403.368 353.356 403.835 353.658 404.272 354.081ZM388.684 349.941L377.109 352.823L375.444 351.21L384.554 341.809L385.998 343.209L378.952 350.48L390.503 347.574L392.192 349.211L383.082 358.612L381.638 357.212L388.684 349.941ZM375.027 356.882L373.68 355.577C374.321 354.916 375.073 354.597 375.937 354.619C376.802 354.642 377.625 355.033 378.409 355.792C379.18 356.539 379.59 357.345 379.64 358.208C379.686 359.067 379.388 359.827 378.748 360.488L377.401 359.183C377.71 358.865 377.893 358.5 377.951 358.09C378.004 357.675 377.817 357.26 377.389 356.845C376.96 356.43 376.538 356.253 376.121 356.316C375.7 356.375 375.335 356.564 375.027 356.882Z" fill="#FF0000"/>
<path d="M360.013 273.143L372.561 276.875L371.987 278.803L359.44 275.071L360.013 273.143ZM365.769 275.673L367.566 276.208C367.6 276.692 367.616 277.168 367.613 277.635C367.605 278.101 367.566 278.582 367.496 279.076C367.42 279.57 367.298 280.099 367.13 280.666C366.707 282.087 365.984 283.114 364.96 283.746C363.938 284.373 362.659 284.458 361.123 284.001L357.104 282.805L357.677 280.878L361.696 282.073C362.339 282.264 362.904 282.299 363.39 282.177C363.877 282.055 364.284 281.814 364.61 281.455C364.936 281.095 365.177 280.654 365.332 280.131C365.575 279.314 365.721 278.555 365.77 277.852C365.815 277.142 365.815 276.416 365.769 275.673ZM375.439 268.155C375.079 269.364 374.502 270.327 373.708 271.045C372.909 271.756 371.958 272.205 370.853 272.392C369.744 272.573 368.547 272.471 367.262 272.089C365.977 271.707 364.914 271.136 364.073 270.376C363.228 269.609 362.656 268.722 362.357 267.714C362.054 266.699 362.071 265.625 362.408 264.492C362.602 263.839 362.903 263.226 363.311 262.654C363.718 262.081 364.245 261.606 364.89 261.229C365.53 260.851 366.297 260.625 367.19 260.553C368.083 260.481 369.115 260.619 370.286 260.967L371.102 261.21L368.226 270.882L366.559 270.386L368.853 262.675C368.145 262.464 367.471 262.418 366.831 262.536C366.193 262.648 365.636 262.916 365.161 263.337C364.688 263.754 364.347 264.31 364.14 265.007C363.912 265.775 363.905 266.496 364.119 267.171C364.329 267.838 364.692 268.411 365.208 268.891C365.723 269.37 366.327 269.713 367.018 269.918L368.129 270.249C369.077 270.531 369.929 270.606 370.685 270.475C371.437 270.337 372.073 270.025 372.591 269.539C373.103 269.052 373.475 268.418 373.707 267.64C373.858 267.133 373.923 266.655 373.903 266.204C373.879 265.746 373.767 265.325 373.568 264.939C373.363 264.552 373.067 264.212 372.679 263.92L373.756 262.212C374.33 262.596 374.787 263.091 375.129 263.697C375.465 264.3 375.665 264.982 375.729 265.743C375.788 266.501 375.692 267.305 375.439 268.155ZM382.3 261.348L365.047 256.217L365.601 254.354L367.595 254.947L367.663 254.718C367.487 254.512 367.267 254.233 367.004 253.882C366.737 253.524 366.541 253.069 366.415 252.516C366.285 251.955 366.342 251.267 366.585 250.45C366.899 249.393 367.44 248.541 368.208 247.892C368.976 247.243 369.912 246.836 371.016 246.673C372.12 246.509 373.331 246.623 374.648 247.015C375.977 247.41 377.062 247.979 377.902 248.721C378.737 249.461 379.303 250.311 379.598 251.27C379.888 252.228 379.878 253.23 379.567 254.275C379.327 255.081 379.002 255.687 378.591 256.092C378.174 256.496 377.756 256.778 377.335 256.937C376.908 257.095 376.56 257.21 376.289 257.284L376.24 257.447L382.874 259.42L382.3 261.348ZM371.885 256.187C372.832 256.469 373.71 256.579 374.517 256.517C375.318 256.453 376.002 256.215 376.57 255.803C377.131 255.389 377.527 254.795 377.757 254.022C377.997 253.216 377.985 252.48 377.72 251.814C377.452 251.142 376.996 250.562 376.353 250.074C375.706 249.579 374.936 249.199 374.042 248.933C373.16 248.671 372.324 248.571 371.536 248.632C370.743 248.687 370.058 248.925 369.483 249.347C368.903 249.761 368.491 250.377 368.248 251.194C368.015 251.978 368.018 252.696 368.257 253.348C368.49 253.998 368.92 254.565 369.547 255.048C370.169 255.529 370.948 255.909 371.885 256.187ZM383.59 240.747C383.231 241.956 382.654 242.92 381.859 243.638C381.061 244.349 380.109 244.798 379.004 244.985C377.896 245.165 376.699 245.064 375.414 244.682C374.128 244.3 373.065 243.729 372.224 242.969C371.379 242.202 370.807 241.314 370.508 240.307C370.206 239.292 370.223 238.218 370.56 237.085C370.754 236.432 371.055 235.819 371.462 235.246C371.87 234.674 372.396 234.199 373.042 233.822C373.682 233.444 374.448 233.218 375.341 233.146C376.234 233.073 377.266 233.211 378.437 233.56L379.254 233.803L376.377 243.475L374.711 242.979L377.004 235.267C376.296 235.057 375.623 235.011 374.983 235.129C374.345 235.241 373.788 235.508 373.313 235.93C372.839 236.346 372.499 236.903 372.291 237.6C372.063 238.368 372.056 239.089 372.27 239.764C372.481 240.431 372.844 241.004 373.359 241.483C373.875 241.963 374.478 242.305 375.17 242.511L376.281 242.841C377.229 243.123 378.081 243.199 378.837 243.068C379.589 242.93 380.224 242.618 380.742 242.132C381.255 241.644 381.627 241.011 381.859 240.232C382.009 239.726 382.074 239.247 382.054 238.797C382.03 238.339 381.919 237.918 381.719 237.532C381.514 237.145 381.218 236.805 380.831 236.512L381.908 234.805C382.481 235.189 382.939 235.684 383.28 236.289C383.616 236.893 383.817 237.575 383.881 238.335C383.94 239.094 383.843 239.898 383.59 240.747ZM382.311 232.373L382.923 230.315C383.503 230.44 384.009 230.312 384.442 229.931C384.877 229.544 385.207 228.973 385.433 228.216C385.663 227.442 385.701 226.734 385.549 226.09C385.391 225.444 384.956 225.015 384.242 224.803C383.823 224.678 383.427 224.673 383.056 224.788C382.678 224.901 382.346 225.119 382.06 225.443C381.774 225.767 381.555 226.185 381.403 226.697L380.761 228.854L379.03 228.339L379.671 226.182C379.899 225.414 379.894 224.796 379.654 224.327C379.415 223.853 379.035 223.539 378.512 223.383C377.951 223.216 377.442 223.281 376.986 223.578C376.525 223.874 376.186 224.387 375.969 225.116C375.75 225.852 375.734 226.514 375.921 227.103C376.102 227.69 376.447 228.074 376.956 228.255L376.353 230.281C375.685 230.059 375.15 229.674 374.749 229.128C374.343 228.581 374.093 227.925 374 227.163C373.901 226.398 373.981 225.58 374.241 224.709C374.503 223.827 374.886 223.108 375.389 222.552C375.888 221.989 376.455 221.609 377.088 221.413C377.718 221.209 378.365 221.205 379.03 221.403C379.738 221.614 380.25 221.982 380.568 222.51C380.885 223.037 381.047 223.627 381.054 224.282L381.185 224.32C381.359 223.856 381.633 223.49 382.009 223.223C382.381 222.948 382.815 222.778 383.309 222.711C383.797 222.643 384.303 222.687 384.826 222.842C385.588 223.069 386.192 223.471 386.637 224.048C387.076 224.623 387.345 225.314 387.443 226.119C387.536 226.924 387.446 227.783 387.174 228.698C386.91 229.586 386.529 230.338 386.032 230.955C385.529 231.57 384.957 232.007 384.316 232.267C383.672 232.52 383.004 232.556 382.311 232.373Z" fill="#FF0000"/>
<path d="M390.353 220.091L381.656 204.331L383.357 203.392L384.362 205.213L384.571 205.098C384.59 204.827 384.63 204.475 384.688 204.04C384.749 203.598 384.929 203.135 385.227 202.653C385.527 202.162 386.051 201.711 386.797 201.299C387.762 200.767 388.746 200.539 389.748 200.615C390.751 200.691 391.703 201.058 392.604 201.716C393.506 202.373 394.289 203.304 394.953 204.508C395.623 205.722 395.997 206.888 396.076 208.006C396.152 209.119 395.958 210.122 395.496 211.013C395.031 211.899 394.321 212.605 393.366 213.133C392.63 213.539 391.973 213.742 391.396 213.743C390.816 213.738 390.32 213.645 389.908 213.464C389.494 213.277 389.164 213.115 388.919 212.978L388.77 213.06L392.114 219.119L390.353 220.091ZM386.55 209.107C387.027 209.972 387.576 210.666 388.194 211.187C388.81 211.704 389.465 212.014 390.159 212.118C390.849 212.218 391.548 212.072 392.254 211.682C392.99 211.276 393.498 210.743 393.776 210.083C394.057 209.416 394.139 208.683 394.022 207.884C393.908 207.077 393.626 206.266 393.176 205.45C392.731 204.644 392.206 203.986 391.6 203.477C390.997 202.96 390.342 202.649 389.636 202.546C388.932 202.435 388.207 202.585 387.461 202.997C386.745 203.392 386.243 203.906 385.956 204.538C385.666 205.165 385.575 205.871 385.683 206.655C385.789 207.434 386.077 208.251 386.55 209.107ZM404.307 207.134C403.58 207.535 402.846 207.762 402.103 207.815C401.357 207.863 400.666 207.722 400.029 207.392C399.39 207.056 398.865 206.516 398.453 205.77C398.091 205.113 397.926 204.509 397.96 203.959C397.991 203.403 398.158 202.889 398.462 202.416C398.765 201.944 399.147 201.506 399.606 201.103C400.068 200.693 400.545 200.306 401.039 199.943C401.686 199.469 402.214 199.09 402.622 198.806C403.032 198.515 403.305 198.257 403.441 198.033C403.582 197.806 403.574 197.551 403.417 197.267L403.385 197.208C402.978 196.471 402.461 196.01 401.833 195.825C401.21 195.637 400.493 195.766 399.682 196.214C398.841 196.678 398.284 197.225 398.009 197.857C397.735 198.489 397.616 199.067 397.653 199.592L395.652 199.917C395.566 199.056 395.665 198.294 395.948 197.632C396.234 196.962 396.63 196.386 397.137 195.905C397.646 195.416 398.189 195.013 398.766 194.694C399.134 194.491 399.582 194.303 400.109 194.129C400.638 193.947 401.2 193.867 401.796 193.888C402.397 193.907 402.997 194.105 403.594 194.483C404.192 194.86 404.742 195.504 405.244 196.415L409.412 203.966L407.651 204.938L406.794 203.386L406.705 203.435C406.722 203.75 406.67 204.126 406.548 204.563C406.426 205.001 406.189 205.446 405.836 205.901C405.483 206.355 404.973 206.766 404.307 207.134ZM403.702 205.404C404.399 205.019 404.91 204.559 405.237 204.021C405.568 203.482 405.737 202.928 405.742 202.361C405.751 201.791 405.625 201.267 405.361 200.789L404.472 199.177C404.446 199.308 404.328 199.481 404.115 199.695C403.905 199.902 403.651 200.124 403.352 200.36C403.056 200.588 402.765 200.807 402.479 201.017C402.195 201.219 401.965 201.385 401.79 201.514C401.365 201.826 400.991 202.16 400.667 202.513C400.345 202.86 400.135 203.232 400.037 203.63C399.941 204.02 400.016 204.44 400.263 204.887C400.601 205.499 401.083 205.837 401.708 205.9C402.336 205.956 403.001 205.791 403.702 205.404ZM417.086 200.043C416.13 200.57 415.154 200.794 414.156 200.715C413.156 200.631 412.205 200.26 411.304 199.603C410.399 198.94 409.612 198.002 408.943 196.788C408.278 195.584 407.908 194.426 407.832 193.312C407.757 192.199 407.954 191.198 408.424 190.309C408.894 189.42 409.611 188.71 410.576 188.177C411.322 187.765 411.981 187.564 412.551 187.574C413.123 187.576 413.61 187.671 414.012 187.858C414.416 188.037 414.737 188.191 414.976 188.319L415.126 188.236L412.013 182.595L413.774 181.623L422.207 196.905L420.506 197.844L419.534 196.083L419.325 196.198C419.311 196.479 419.272 196.844 419.209 197.294C419.143 197.739 418.958 198.208 418.652 198.701C418.344 199.189 417.822 199.637 417.086 200.043ZM416.451 198.329C417.158 197.939 417.653 197.426 417.937 196.789C418.219 196.147 418.306 195.427 418.197 194.631C418.085 193.829 417.791 192.995 417.313 192.13C416.841 191.274 416.304 190.594 415.701 190.09C415.095 189.58 414.45 189.281 413.765 189.192C413.077 189.098 412.374 189.248 411.658 189.644C410.912 190.055 410.396 190.59 410.11 191.248C409.826 191.897 409.739 192.617 409.85 193.406C409.963 194.187 410.242 194.981 410.687 195.786C411.137 196.602 411.671 197.275 412.287 197.804C412.906 198.326 413.57 198.647 414.28 198.768C414.991 198.882 415.715 198.736 416.451 198.329ZM425.677 194.99L419.352 183.529L421.113 182.557L427.438 194.019L425.677 194.99ZM419.193 181.124C418.85 181.314 418.489 181.36 418.111 181.264C417.739 181.165 417.462 180.951 417.281 180.622C417.099 180.294 417.066 179.946 417.181 179.577C417.301 179.206 417.532 178.926 417.875 178.737C418.219 178.547 418.577 178.502 418.949 178.601C419.327 178.698 419.607 178.91 419.788 179.239C419.969 179.567 420 179.917 419.88 180.288C419.765 180.656 419.536 180.935 419.193 181.124ZM428.619 184.372L432.424 191.267L430.663 192.239L424.338 180.777L426.039 179.838L427.028 181.629L427.177 181.547C427.124 180.817 427.274 180.124 427.627 179.469C427.976 178.808 428.584 178.24 429.449 177.762C430.225 177.334 430.992 177.118 431.75 177.115C432.505 177.107 433.221 177.335 433.899 177.799C434.573 178.257 435.18 178.974 435.718 179.949L439.737 187.231L437.976 188.203L434.023 181.04C433.526 180.139 432.905 179.567 432.16 179.323C431.412 179.073 430.631 179.174 429.815 179.624C429.253 179.934 428.818 180.333 428.509 180.821C428.206 181.307 428.057 181.853 428.061 182.461C428.065 183.068 428.251 183.705 428.619 184.372ZM450.085 187.439C449.234 187.909 448.443 188.203 447.71 188.322C446.98 188.445 446.314 188.443 445.711 188.315C445.116 188.189 444.589 187.993 444.13 187.727L444.99 185.968C445.264 186.089 445.597 186.217 445.989 186.351C446.384 186.49 446.848 186.542 447.381 186.508C447.921 186.476 448.537 186.269 449.228 185.887C450.154 185.377 450.794 184.731 451.149 183.952C451.503 183.172 451.417 182.304 450.89 181.349L449.605 179.021L449.456 179.103C449.442 179.384 449.401 179.744 449.332 180.184C449.266 180.616 449.077 181.074 448.766 181.557C448.458 182.033 447.93 182.476 447.184 182.888C446.259 183.399 445.307 183.638 444.329 183.607C443.356 183.573 442.425 183.256 441.536 182.656C440.652 182.054 439.881 181.155 439.222 179.962C438.574 178.788 438.217 177.651 438.149 176.553C438.079 175.45 438.28 174.456 438.753 173.572C439.223 172.683 439.94 171.973 440.905 171.44C441.651 171.028 442.312 170.826 442.887 170.833C443.464 170.832 443.956 170.924 444.363 171.109C444.772 171.285 445.096 171.438 445.335 171.565L445.514 171.466L444.51 169.646L446.211 168.707L452.717 180.497C453.261 181.482 453.479 182.406 453.371 183.27C453.272 184.136 452.926 184.921 452.334 185.624C451.75 186.329 451 186.934 450.085 187.439ZM446.55 181.174C447.256 180.785 447.764 180.293 448.073 179.701C448.382 179.109 448.496 178.439 448.415 177.692C448.333 176.945 448.06 176.149 447.593 175.303C447.137 174.477 446.611 173.817 446.013 173.323C445.416 172.828 444.775 172.536 444.089 172.447C443.404 172.358 442.703 172.511 441.987 172.907C441.241 173.318 440.723 173.851 440.435 174.503C440.151 175.153 440.06 175.865 440.163 176.639C440.27 177.41 440.538 178.184 440.967 178.96C441.406 179.756 441.919 180.391 442.505 180.866C443.094 181.333 443.73 181.604 444.415 181.681C445.102 181.749 445.813 181.581 446.55 181.174Z" fill="#FF0000"/>
</g>
<defs>
<clipPath id="clip0_1_4">
<rect width="866" height="588" fill="white"/>
</clipPath>
</defs>
</svg>
